<?xml version="1.0" encoding="UTF-8"?>
<svg viewBox="0 0 640 480" xmlns="http://www.w3.org/2000/svg" xmlns:xlink="http://www.w3.org/1999/xlink">
 <defs>
  <symbol id="c" width="24px" height="24px" viewBox="0 0 24 24" xmlns="http://www.w3.org/2000/svg">
   <path d="m0 0h24v24h-24v-24z" fill="none"/>
   <path d="m12 6c1.1 0 2 0.9 2 2s-0.9 2-2 2-2-0.9-2-2 0.9-2 2-2m0 9c2.7 0 5.8 1.29 6 2v1h-12v-0.99c0.2-0.72 3.3-2.01 6-2.01m0-11c-2.21 0-4 1.79-4 4s1.79 4 4 4 4-1.79 4-4-1.79-4-4-4zm0 9c-2.67 0-8 1.34-8 4v3h16v-3c0-2.66-5.33-4-8-4z"/>
  </symbol>
  <symbol id="b" width="24px" height="24px" viewBox="0 0 24 24" xmlns="http://www.w3.org/2000/svg">
   <path d="m0 0h24v24h-24v-24z" fill="none"/>
   <path d="m8 16h8v2h-8v-2zm0-4h8v2h-8v-2zm6-10h-8c-1.1 0-2 0.9-2 2v16c0 1.1 0.89 2 1.99 2h12.01c1.1 0 2-0.9 2-2v-12l-6-6zm4 18h-12v-16h7v5h5v11z"/>
  </symbol>
  <symbol id="a" width="24px" height="24px" enable-background="new 0 0 24 24" viewBox="0 0 24 24" xmlns="http://www.w3.org/2000/svg">
   <path d="m0 0h24v24h-24v-24z" fill="none"/>
   <path d="m21.41 11.41-8.83-8.83c-0.37-0.37-0.88-0.58-1.41-0.58h-7.17c-1.1 0-2 0.9-2 2v7.17c0 0.53 0.21 1.04 0.59 1.41l8.83 8.83c0.78 0.78 2.05 0.78 2.83 0l7.17-7.17c0.78-0.78 0.78-2.04-0.01-2.83zm-8.58 8.59-8.83-8.83v-7.17h7.17l8.83 8.83-7.17 7.17z"/>
   <circle cx="6.5" cy="6.5" r="1.5"/>
  </symbol>
 </defs>
 <g class="layer">
  <title>Layer 1</title>
  <use transform="matrix(5.0104 0 0 5.0104 -16.078 65.368)" x="88.3" y="21.69" fill="#01bb28" xlink:href="#c"/>
  <path d="m401.93 236.08 27.97 28h-18.42l-27.97-28 27.97-28h18.42l-27.97 28z" fill="#01bb28" stroke="#000" stroke-width="0"/>
  <use transform="matrix(4.4072 0 0 4.4072 139.73 90.278)" x="28.75" y="19.81" fill="#01bb28" xlink:href="#b"/>
  <path d="m237.41 236.44-27.97-28h18.42l27.97 28-27.97 28h-18.42l27.97-28z" fill="#01bb28" stroke="#000" stroke-width="0"/>
  <use transform="matrix(4.3467 0 0 4.2946 37.463 159.74)" x="13.75" y="4.6" fill="#01bb28" xlink:href="#a"/>
 </g>
</svg>
